<svg width="237" height="177" viewBox="0 0 237 177" fill="none" xmlns="http://www.w3.org/2000/svg">
<g clip-path="url(#clip0)">
<path fill-rule="evenodd" clip-rule="evenodd" d="M199.192 22.5039C198.935 36.5659 207.095 43.1987 207.095 43.1987C207.095 43.1987 215.636 35.5591 215.884 21.857C216.138 8.13081 206.752 0.0763092 206.752 0.0763092C206.752 0.0763092 199.443 8.43945 199.192 22.5039ZM183.806 55.9414C187.179 69.0076 197.107 73.3418 197.107 73.3418C197.107 73.3418 203.44 64.1143 199.986 50.7028C196.519 37.295 187.615 31.8525 187.615 31.8525C187.615 31.8525 180.439 42.8777 183.806 55.9414ZM217.417 49.4254C210.856 60.9724 214.651 72.0849 214.651 72.0849C214.651 72.0849 225.192 71.5389 231.571 60.2698C237.97 49.0073 233.813 35.8922 233.813 35.8922C233.813 35.8922 223.971 37.8684 217.417 49.4254ZM192.849 87.7519C194.849 101.604 187.595 109.751 187.595 109.751C187.595 109.751 178.206 103.856 176.251 90.3656C174.321 76.8654 182.595 67.0813 182.595 67.0813C182.595 67.0813 190.845 73.9082 192.849 87.7519ZM176.357 111.944C175.422 97.9059 167.738 90.1587 167.738 90.1587C167.738 90.1587 158.748 98.9475 159.66 112.615C160.571 126.282 169.446 133.236 169.446 133.236C169.446 133.236 177.287 125.972 176.357 111.944ZM145.682 155.096C145.682 155.096 138.806 145.289 141.136 131.863C143.472 118.44 154.142 113.2 154.142 113.2C154.142 113.2 159.67 123.352 157.285 137.131C154.892 150.908 145.682 155.096 145.682 155.096ZM208.506 100.152C208.506 100.152 207.561 88.1501 216.58 79.4832C225.619 70.8147 235.484 72.4843 235.484 72.4843C235.484 72.4843 236.315 86.5489 227.506 94.9991C218.694 103.457 208.506 100.152 208.506 100.152ZM206.373 108.526C196.007 114.531 194.762 126.498 194.762 126.498C194.762 126.498 204.102 132.489 214.205 126.658C224.308 120.827 226.046 106.869 226.046 106.869C226.046 106.869 216.743 102.541 206.373 108.526ZM178.204 146.581C178.204 146.581 182.331 135.619 193.678 133.765C205.039 131.906 212.821 139.496 212.821 139.496C212.821 139.496 207.732 152.155 196.676 153.967C185.611 155.784 178.204 146.581 178.204 146.581ZM189.537 163.353C189.537 163.353 182.527 154.678 171.086 154.843C159.652 155.018 154.509 165.292 154.509 165.292C154.509 165.292 160.961 175.521 172.111 175.365C183.27 175.169 189.537 163.353 189.537 163.353ZM204.268 50.7054L209.639 49.3979C209.748 50.1164 220.148 121.7 136.017 171.207L133.683 165.162C213.765 118.018 204.699 53.4216 204.268 50.7054ZM18.0893 49.9908C24.6489 61.5378 20.8546 72.6504 20.8546 72.6504C20.8546 72.6504 10.3144 72.1043 3.93498 60.8353C-2.46411 49.5728 1.6922 36.4577 1.6922 36.4577C1.6922 36.4577 11.5344 38.4339 18.0893 49.9908ZM38.3997 73.9073C38.3997 73.9073 48.3274 69.5729 51.7009 56.5069C55.068 43.4431 47.8923 32.4179 47.8923 32.4179C47.8923 32.4179 38.9868 37.8605 35.5195 51.2682C32.0672 64.6797 38.3997 73.9073 38.3997 73.9073ZM47.9116 110.317C47.9116 110.317 40.6569 102.169 42.6577 88.3173C44.6602 74.4737 52.9113 67.6468 52.9113 67.6468C52.9113 67.6468 61.1845 77.4309 59.2542 90.9311C57.3008 104.422 47.9116 110.317 47.9116 110.317ZM67.7688 90.7242C67.7688 90.7242 60.0844 98.4713 59.1497 112.509C58.2197 126.537 66.0602 133.801 66.0602 133.801C66.0602 133.801 74.9366 126.847 75.8472 113.18C76.7578 99.513 67.7688 90.7242 67.7688 90.7242ZM94.3697 132.429C96.6994 145.855 89.8242 155.661 89.8242 155.661C89.8242 155.661 80.614 151.473 78.2214 137.696C75.8352 123.917 81.3639 113.765 81.3639 113.765C81.3639 113.765 92.0333 119.005 94.3697 132.429ZM28.4109 43.7642C28.4109 43.7642 36.5713 37.1314 36.3139 23.0693C36.0632 9.00489 28.7544 0.641756 28.7544 0.641756C28.7544 0.641756 19.3678 8.69627 19.6216 22.4225C19.8703 36.1246 28.4109 43.7642 28.4109 43.7642ZM18.9261 80.0486C27.9446 88.7156 26.9992 100.718 26.9992 100.718C26.9992 100.718 16.8111 104.023 7.99981 95.5646C-0.809749 87.1143 0.0209104 73.0498 0.0209104 73.0498C0.0209104 73.0498 9.88613 71.3801 18.9261 80.0486ZM40.7443 127.063C40.7443 127.063 39.4996 115.096 29.1331 109.092C18.7638 103.106 9.45999 107.435 9.45999 107.435C9.45999 107.435 11.197 121.392 21.3006 127.223C31.4043 133.054 40.7443 127.063 40.7443 127.063ZM41.8282 134.33C53.1745 136.185 57.3028 147.146 57.3028 147.146C57.3028 147.146 49.8951 156.35 38.8308 154.532C27.7747 152.72 22.6847 140.061 22.6847 140.061C22.6847 140.061 30.467 132.472 41.8282 134.33ZM64.4188 155.408C52.979 155.243 45.9685 163.919 45.9685 163.919C45.9685 163.919 52.236 175.734 63.3947 175.931C74.5445 176.087 80.9971 165.857 80.9971 165.857C80.9971 165.857 75.8537 155.583 64.4188 155.408ZM25.8673 49.9633L31.2375 51.2709C30.8074 53.9871 21.7414 118.583 101.823 165.727L99.4886 171.772C15.3575 122.266 25.7579 50.6819 25.8673 49.9633Z" fill="url(#paint0_linear)"/>
</g>
<defs>
<linearGradient id="paint0_linear" x1="117.753" y1="0.0763092" x2="117.753" y2="175.933" gradientUnits="userSpaceOnUse">
<stop stop-color="#DCDDE0"/>
<stop offset="1" stop-color="#DCDDE0" stop-opacity="0"/>
</linearGradient>
<clipPath id="clip0">
<rect width="237" height="177" fill="white"/>
</clipPath>
</defs>
</svg>
